<svg width="208" height="136" viewBox="0 0 208 136" fill="none" xmlns="http://www.w3.org/2000/svg">
<path d="M20 112H12C13.0188 59.1951 53.8952 23 104.078 23C154.261 23 194.985 59.1951 196 112H188C188 62 149.319 31.5 103.5 31.5C57.681 31.5 20 63 20 112Z" fill="#D9D9D9"/>
<path d="M117.897 23.9354C119.235 21.5966 120 18.8877 120 16C120 7.16344 112.837 0 104 0C95.1634 0 88 7.16344 88 16C88 18.8957 88.7692 21.6116 90.1145 23.9548C93.4394 23.4941 96.8225 23.1972 100.254 23.0704C97.7233 21.7269 96 19.0647 96 16C96 11.5817 99.5817 8 104 8C108.418 8 112 11.5817 112 16C112 19.0607 110.281 21.7199 107.756 23.0652C111.188 23.1871 114.572 23.4793 117.897 23.9354Z" fill="#D9D9D9"/>
<path fill-rule="evenodd" clip-rule="evenodd" d="M2.32883 112C1.07825 112 0.0976215 113.074 0.210842 114.319L0.729347 120.023C1.47408 128.215 7.75057 134.822 15.8937 135.985C15.9645 135.995 16.0359 136 16.1073 136H191.837C191.945 136 192.054 135.989 192.16 135.968C200.879 134.224 207.293 126.77 207.718 117.888L207.897 114.155C207.953 112.982 207.017 112 205.842 112H2.32883ZM200 120H9C9.93103 123.724 12.7422 126.69 16.4112 127.819L16.8558 127.956C16.9514 127.985 17.0508 128 17.1508 128H190.796C190.931 128 191.065 127.978 191.194 127.935C194.911 126.696 197.985 124.031 199.737 120.526L200 120Z" fill="#D9D9D9"/>
</svg>
